<svg width="20" height="20" viewBox="0 0 20 20" fill="none" xmlns="http://www.w3.org/2000/svg">
<path d="M16.6666 8.33334C16.6666 13.3333 9.99998 18.3333 9.99998 18.3333C9.99998 18.3333 3.33331 13.3333 3.33331 8.33334C3.33331 6.56523 4.03569 4.86954 5.28593 3.61929C6.53618 2.36905 8.23187 1.66667 9.99998 1.66667C11.7681 1.66667 13.4638 2.36905 14.714 3.61929C15.9643 4.86954 16.6666 6.56523 16.6666 8.33334Z" stroke="#A1A1AA" stroke-width="1.25" stroke-linecap="round" stroke-linejoin="round"/>
<path d="M9.99998 10.8333C11.3807 10.8333 12.5 9.71405 12.5 8.33334C12.5 6.95263 11.3807 5.83334 9.99998 5.83334C8.61927 5.83334 7.49998 6.95263 7.49998 8.33334C7.49998 9.71405 8.61927 10.8333 9.99998 10.8333Z" stroke="#A1A1AA" stroke-width="1.25" stroke-linecap="round" stroke-linejoin="round"/>
</svg>
